<?xml version="1.0" encoding="UTF-8"?><svg version="1.1" width="36px" height="27px" viewBox="0 0 36.0 27.0" xmlns="http://www.w3.org/2000/svg" xmlns:xlink="http://www.w3.org/1999/xlink"><defs><clipPath id="i0"><path d="M25.3271484,0 C31.640625,0 34.6142578,2.95898438 34.6142578,9.2578125 L34.6142578,17.5634766 C34.6142578,23.8623047 31.640625,26.8212891 25.3271484,26.8212891 L9.27246094,26.8212891 C2.97363281,26.8212891 0,23.8623047 0,17.5634766 L0,9.2578125 C0,2.95898438 2.97363281,0 9.27246094,0 Z M9.58007812,10.6054688 L3.77929688,10.6054688 L3.77929688,17.5634766 C3.77929688,21.3427734 5.47851562,23.0419922 9.27246094,23.0419922 L25.3271484,23.0419922 C29.1210938,23.0419922 30.8349609,21.3427734 30.8349609,17.5634766 L30.8349609,10.6054688 L25.0341797,10.6054688 C24.7558594,11.2353516 24.1259766,11.6308594 23.3496094,11.6308594 L11.2646484,11.6308594 C10.5029297,11.6308594 9.87304688,11.2353516 9.58007812,10.6054688 Z M17.2998047,13.7988281 C18.1640625,13.7988281 18.8525391,14.4873047 18.8525391,15.3369141 C18.8525391,16.1572266 18.1640625,16.8457031 17.2998047,16.8603516 C16.4648438,16.875 15.7617188,16.171875 15.7617188,15.3369141 C15.7617188,14.4873047 16.4648438,13.7988281 17.2998047,13.7988281 Z M25.3271484,3.77929688 L9.27246094,3.77929688 C5.59570312,3.77929688 3.88183594,5.390625 3.77929688,8.95019531 L9.58007812,8.95019531 C9.87304688,8.3203125 10.5029297,7.92480469 11.2646484,7.92480469 L23.3496094,7.92480469 C24.1259766,7.92480469 24.7558594,8.3203125 25.0341797,8.95019531 L30.8203125,8.95019531 C30.7324219,5.390625 29.0185547,3.77929688 25.3271484,3.77929688 Z"></path></clipPath></defs><g transform="translate(0.7353515625 0.0205078125)"><g clip-path="url(#i0)"><polygon points="0,0 34.6142578,0 34.6142578,26.8212891 0,26.8212891 0,0" stroke="none" fill="#000000"></polygon></g></g></svg>