<?xml version="1.0" encoding="UTF-8"?><svg version="1.1" width="43px" height="29px" viewBox="0 0 43.0 29.0" xmlns="http://www.w3.org/2000/svg" xmlns:xlink="http://www.w3.org/1999/xlink"><defs><clipPath id="i0"><path d="M14.6923828,15.9379882 L14.6923828,25.6645507 C14.6923828,26.8217773 13.9160156,27.5102539 12.7294922,27.5102539 L11.5283203,27.5102539 C10.3271484,27.5102539 9.53613281,26.8217773 9.53613281,25.6645507 L9.53613281,17.3588867 C11.3671875,17.2124023 12.9638672,16.8022461 14.6923828,15.9379882 Z M27.5244141,15.9379882 C29.2675781,16.8022461 30.8642578,17.2124023 32.6953125,17.3588867 L32.6953125,25.6645507 C32.6953125,26.8217773 31.9042969,27.5102539 30.703125,27.5102539 L29.5019531,27.5102539 C28.3007812,27.5102539 27.5244141,26.8217773 27.5244141,25.6645507 Z M4.55566406,6.50439449 C7.77832031,6.50439449 10.4443359,9.28759762 10.4443359,12.1293945 C10.4443359,15.0737304 8.39355469,16.8022461 5.7421875,16.8022461 C2.76855469,16.8022461 0,14.3999023 0,11.1186523 C0,8.64306637 1.80175781,6.50439449 4.55566406,6.50439449 Z M37.6757812,6.50439449 C40.4150391,6.50439449 42.2314453,8.64306637 42.2314453,11.1186523 C42.2314453,14.3999023 39.4628906,16.8022461 36.4746094,16.8022461 C33.8232422,16.8022461 31.7724609,15.0737304 31.7724609,12.1293945 C31.7724609,9.28759762 34.453125,6.50439449 37.6757812,6.50439449 Z M13.7988281,0.00048824107 C17.3876953,0.0297851161 20.0683594,2.46142574 20.0683594,6.32861324 C20.0683594,9.53662105 18.28125,11.9682617 15.6445312,13.5209961 C14.5605469,14.1801757 13.3740234,14.6049804 11.6894531,14.8979492 C12.0556641,14.0776367 12.2460938,13.1401367 12.2460938,12.1293945 C12.2460938,8.56982418 9.33105469,5.40576168 5.75683594,4.80517574 C5.93261719,4.4389648 6.10839844,4.16064449 6.29882812,3.89697262 C8.14453125,1.26025387 11.1035156,-0.0288086339 13.7988281,0.00048824107 Z M28.4326172,0.00048824107 C31.1279297,-0.0288086339 34.0869141,1.26025387 35.9326172,3.89697262 C36.1230469,4.16064449 36.2988281,4.4389648 36.4746094,4.80517574 C32.9003906,5.40576168 29.9707031,8.56982418 29.9707031,12.1293945 C29.9707031,13.1401367 30.1757812,14.0776367 30.5273438,14.8979492 C28.8427734,14.6049804 27.65625,14.1801757 26.5722656,13.5209961 C23.9501953,11.9682617 22.1484375,9.53662105 22.1484375,6.32861324 C22.1484375,2.46142574 24.84375,0.0297851161 28.4326172,0.00048824107 Z M40.0048828,10.9282226 C39.4482422,10.4594726 38.6572266,10.9282226 37.7636719,12.0268554 C36.8701172,13.1254882 36.5332031,13.9604492 37.0751953,14.4145507 C37.6025391,14.8540039 38.4082031,14.3852539 39.3017578,13.3012695 C40.1806641,12.2026367 40.5175781,11.3530273 40.0048828,10.9282226 Z M4.453125,12.0268554 C3.55957031,10.9282226 2.78320312,10.4594726 2.2265625,10.9282226 C1.69921875,11.3530273 2.03613281,12.2026367 2.9296875,13.3012695 C3.80859375,14.3852539 4.62890625,14.8540039 5.15625,14.4145507 C5.68359375,13.9604492 5.34667969,13.1254882 4.453125,12.0268554 Z M17.0068359,3.7358398 C16.6845703,3.31103512 16.1425781,3.29638668 15.7617187,3.60400387 L13.8574219,5.18603512 C13.4765625,5.4936523 13.4326172,6.02099605 13.7402344,6.41650387 C14.0478516,6.81201168 14.6191406,6.85595699 15,6.53369137 L16.8896484,4.95166012 C17.2851562,4.62939449 17.2998047,4.10205074 17.0068359,3.7358398 Z M26.4697266,3.60400387 C26.0888672,3.29638668 25.5322266,3.31103512 25.2246094,3.7358398 C24.9169922,4.10205074 24.9462891,4.62939449 25.3271484,4.95166012 L27.2314453,6.53369137 C27.6123047,6.85595699 28.1835938,6.81201168 28.4912109,6.41650387 C28.7841797,6.02099605 28.7548828,5.4936523 28.3740234,5.18603512 Z"></path></clipPath></defs><g transform="translate(0.7353515625 0.6684570714303177)"><g clip-path="url(#i0)"><polygon points="0,0 42.2314453,0 42.2314453,27.5102539 0,27.5102539 0,0" stroke="none" fill="#000000"></polygon></g></g></svg>