<?xml version="1.0" encoding="UTF-8"?><svg version="1.1" width="31px" height="31px" viewBox="0 0 31.0 31.0" xmlns="http://www.w3.org/2000/svg" xmlns:xlink="http://www.w3.org/1999/xlink"><defs><clipPath id="i0"><path d="M21.6650391,0 C24.6240234,0 26.6748047,0.395507812 28.2128906,1.91894531 C29.7363281,3.42773438 30.1025391,5.46386719 30.1025391,8.4375 L30.1025391,21.6064453 C30.1025391,24.5654297 29.7363281,26.6015625 28.2128906,28.125 C26.6894531,29.6484375 24.6240234,30.0439453 21.6650391,30.0439453 L8.4375,30.0439453 C5.49316406,30.0439453 3.42773438,29.6484375 1.90429688,28.125 C0.366210938,26.6015625 0,24.5654297 0,21.6064453 L0,8.42285156 C0,5.47851562 0.380859375,3.44238281 1.90429688,1.91894531 C3.42773438,0.395507812 5.49316406,0 8.42285156,0 Z M22.0751953,3.77929688 L8.05664062,3.77929688 C6.50390625,3.77929688 5.36132812,3.99902344 4.67285156,4.6875 C3.984375,5.37597656 3.77929688,6.48925781 3.77929688,8.05664062 L3.77929688,22.0019531 C3.77929688,23.5546875 3.984375,24.6533203 4.67285156,25.3564453 C5.36132812,26.0449219 6.48925781,26.2646484 8.02734375,26.2646484 L22.0751953,26.2646484 C23.6132812,26.2646484 24.7412109,26.0449219 25.4443359,25.3564453 C26.1181641,24.6533203 26.3232422,23.5546875 26.3232422,22.0019531 L26.3232422,8.02734375 C26.3232422,6.48925781 26.1181641,5.37597656 25.4443359,4.6875 C24.7412109,3.99902344 23.6132812,3.77929688 22.0751953,3.77929688 Z M10.7226562,12.1875 C11.4550781,12.1875 12.0849609,12.4951172 12.4658203,13.0810547 C11.953125,13.4033203 11.7480469,13.7841797 11.6308594,14.0917969 C11.4697266,14.5458984 11.4257812,15.0732422 11.6308594,15.6298828 C11.8212891,16.1132812 12.1728516,16.4648438 12.7001953,16.6992188 C12.5097656,17.3876953 12.0556641,18.2519531 11.4404297,18.7939453 C11.25,18.9697266 10.9863281,19.1015625 10.6494141,19.1015625 C10.3271484,19.1015625 10.1513672,18.9697266 9.87304688,18.8964844 C9.68261719,18.8525391 9.44824219,18.7207031 9.15527344,18.7207031 C8.48144531,18.7207031 8.18847656,19.1162109 7.63183594,19.1162109 C7.25097656,19.1162109 6.94335938,18.8964844 6.53320312,18.4277344 C5.7421875,17.5634766 5.22949219,16.171875 5.22949219,14.9853516 C5.22949219,14.2822266 5.41992188,13.5644531 5.859375,13.0078125 C6.25488281,12.5097656 6.85546875,12.2167969 7.57324219,12.2167969 C8.24707031,12.2167969 8.64257812,12.6269531 8.99414062,12.6269531 C9.40429688,12.6269531 9.88769531,12.1875 10.7226562,12.1875 Z M16.40625,10.5761719 L16.40625,12.1875 L17.7392578,12.1875 L17.7392578,13.2861328 L16.40625,13.2861328 L16.40625,17.0800781 C16.40625,17.7099609 16.6845703,17.9296875 17.2558594,17.9296875 C17.4023438,17.9296875 17.6513672,17.9296875 17.7099609,17.9003906 L17.7099609,19.0429688 C17.5927734,19.0576172 17.2558594,19.1015625 16.9482422,19.1015625 C15.5566406,19.1015625 15,18.6035156 15,17.2412109 L15,13.2861328 L14.0332031,13.2861328 L14.0332031,12.1875 L15,12.1875 L15,10.5761719 L16.40625,10.5761719 Z M19.8632812,12.1875 L21.6357422,17.7099609 L23.3203125,12.1875 L24.84375,12.1875 L22.3681641,19.0429688 L20.8886719,19.0429688 L18.3691406,12.1875 L19.8632812,12.1875 Z M10.8105469,9.90234375 C10.9130859,10.8837891 10.0341797,12.0996094 8.95019531,11.9970703 C8.90625,10.9423828 9.7265625,9.9609375 10.8105469,9.90234375 Z"></path></clipPath></defs><g transform="translate(0.7353515625 0.423828125)"><g clip-path="url(#i0)"><polygon points="0,0 30.1025391,0 30.1025391,30.0439453 0,30.0439453 0,0" stroke="none" fill="#000000"></polygon></g></g></svg>