<?xml version="1.0" encoding="UTF-8"?><svg version="1.1" width="26px" height="33px" viewBox="0 0 26.0 33.0" xmlns="http://www.w3.org/2000/svg" xmlns:xlink="http://www.w3.org/1999/xlink"><defs><clipPath id="i0"><path d="M1.47949219,4.24804688 C1.93359375,3.55957031 2.79785156,3.3984375 3.66210938,3.8671875 C5.55175781,5.05371094 8.87695312,5.859375 12.6123047,5.859375 C16.3476562,5.859375 19.6728516,5.05371094 21.5625,3.8671875 C22.4267578,3.3984375 23.2910156,3.55957031 23.7451172,4.24804688 C24.7412109,5.66894531 25.2246094,7.77832031 25.2246094,10.078125 L25.2246094,21.7822266 C25.2246094,28.6962891 21.3134766,31.8017578 12.6123047,31.8017578 C3.91113281,31.8017578 0,28.6962891 0,21.7822266 L0,10.078125 C0,7.77832031 0.483398437,5.66894531 1.47949219,4.24804688 Z M21.09375,8.17382812 C19.0136719,9.19921875 15.9375,9.69726562 12.6123047,9.69726562 C9.28710938,9.69726562 6.2109375,9.19921875 4.13085938,8.17382812 C3.83789062,8.75976562 3.73535156,9.43359375 3.73535156,10.1513672 L3.73535156,21.5625 C3.73535156,26.1035156 6.24023438,28.0664062 12.6123047,28.0664062 C18.984375,28.0664062 21.4892578,26.1035156 21.4892578,21.5625 L21.4892578,10.1513672 C21.4892578,9.43359375 21.3867188,8.75976562 21.09375,8.17382812 Z M12.5830078,0 C16.5820312,0 19.5556641,0.717773438 19.5556641,1.91894531 C19.5556641,3.10546875 16.5673828,3.83789062 12.5830078,3.83789062 C8.65722656,3.83789062 5.66894531,3.10546875 5.66894531,1.91894531 C5.66894531,0.717773438 8.64257812,0 12.5830078,0 Z"></path></clipPath></defs><g transform="translate(0.7353515625 0.544921875)"><g clip-path="url(#i0)"><polygon points="0,0 25.2246094,0 25.2246094,31.8017578 0,31.8017578 0,0" stroke="none" fill="#000000"></polygon></g></g></svg>