<?xml version="1.0" encoding="UTF-8"?><svg version="1.1" width="32px" height="29px" viewBox="0 0 32.0 29.0" xmlns="http://www.w3.org/2000/svg" xmlns:xlink="http://www.w3.org/1999/xlink"><defs><clipPath id="i0"><path d="M24.4628906,3.76464844 C25.5322266,3.09082031 26.6455078,3.14941406 27.4658203,4.21875 C29.6777344,6.94335938 30.8203125,10.3710938 30.8203125,13.8574219 C30.8203125,18.2958984 28.9599609,22.5146484 25.7666016,25.4443359 C23.4375,27.5976562 20.9472656,28.3154297 15.4101562,28.3154297 C9.87304688,28.3154297 7.3828125,27.5976562 5.05371094,25.4443359 C1.86035156,22.5146484 0,18.2958984 0,13.8574219 C0,10.3710938 1.14257812,6.94335938 3.35449219,4.21875 C4.16015625,3.14941406 5.28808594,3.09082031 6.35742188,3.76464844 C8.40820312,5.15625 11.1621094,5.99121094 15.4101562,5.99121094 C19.6435547,5.99121094 22.4121094,5.15625 24.4628906,3.76464844 Z M25.3125,7.76367188 C22.7636719,9.09667969 19.3212891,9.71191406 15.4101562,9.71191406 C11.484375,9.71191406 8.05664062,9.09667969 5.49316406,7.76367188 C4.20410156,9.91699219 3.73535156,11.8359375 3.73535156,13.8574219 C3.73535156,17.2558594 5.11230469,20.4345703 7.58789062,22.6904297 C9.140625,24.1552734 10.8251953,24.5800781 15.4101562,24.5800781 C19.9951172,24.5800781 21.6650391,24.1552734 23.2324219,22.6904297 C25.7080078,20.4345703 27.0849609,17.2558594 27.0849609,13.8574219 C27.0849609,11.8359375 26.6162109,9.91699219 25.3125,7.76367188 Z M15.4101562,0 C19.5117188,0 22.4560547,0.717773438 22.4560547,1.91894531 C22.4560547,3.10546875 19.4970703,3.83789062 15.4101562,3.83789062 C11.3818359,3.83789062 8.42285156,3.10546875 8.42285156,1.91894531 C8.42285156,0.717773438 11.3671875,0 15.4101562,0 Z"></path></clipPath></defs><g transform="translate(0.7353515625 0.3466796875)"><g clip-path="url(#i0)"><polygon points="0,0 30.8203125,0 30.8203125,28.3154297 0,28.3154297 0,0" stroke="none" fill="#000000"></polygon></g></g></svg>