<?xml version="1.0" encoding="UTF-8"?><svg version="1.1" width="38px" height="33px" viewBox="0 0 38.0 33.0" xmlns="http://www.w3.org/2000/svg" xmlns:xlink="http://www.w3.org/1999/xlink"><defs><clipPath id="i0"><path d="M32.5195312,0 C35.1269531,0 36.6796875,1.55273438 36.6796875,4.14550781 L36.6796875,21.9433594 C36.6796875,24.5507812 35.1269531,26.1035156 32.5195312,26.1035156 L23.3789062,26.1035156 L23.3789062,28.4033203 L23.4228516,28.4033203 C24.3017578,28.4033203 25.0048828,29.1503906 25.0048828,29.9853516 C25.0048828,30.8203125 24.3017578,31.5673828 23.4228516,31.5673828 L13.2568359,31.5673828 C12.3779297,31.5673828 11.6748047,30.8203125 11.6748047,29.9853516 C11.6748047,29.1503906 12.3779297,28.4033203 13.2568359,28.4033203 L13.3007812,28.4033203 L13.3007812,26.1035156 L4.14550781,26.1035156 C1.55273438,26.1035156 0,24.5507812 0,21.9433594 L0,4.14550781 C0,1.55273438 1.55273438,0 4.14550781,0 Z M32.1240234,3.60351562 L4.55566406,3.60351562 C3.96972656,3.60351562 3.60351562,3.95507812 3.60351562,4.54101562 L3.60351562,18.1640625 C3.60351562,18.5888672 3.79394531,18.75 4.20410156,18.75 L32.4755859,18.75 C32.8710938,18.75 33.0615234,18.5888672 33.0615234,18.1640625 L33.0615234,4.54101562 C33.0615234,3.95507812 32.7099609,3.60351562 32.1240234,3.60351562 Z"></path></clipPath></defs><g transform="translate(0.7353515625 0.955078125)"><g clip-path="url(#i0)"><polygon points="0,0 36.6796875,0 36.6796875,31.5673828 0,31.5673828 0,0" stroke="none" fill="#000000"></polygon></g></g></svg>