<?xml version="1.0" encoding="UTF-8"?><svg version="1.1" width="28px" height="36px" viewBox="0 0 28.0 36.0" xmlns="http://www.w3.org/2000/svg" xmlns:xlink="http://www.w3.org/1999/xlink"><defs><clipPath id="i0"><path d="M21.5332031,0 C24.5214844,0 26.4111328,1.83105469 26.4111328,4.77539062 L26.4111328,30.0732422 C26.4111328,33.0175781 24.5214844,34.8486328 21.5332031,34.8486328 L4.87792969,34.8486328 C1.875,34.8486328 0,33.0175781 0,30.0732422 L0,4.77539062 C0,1.83105469 1.875,0 4.87792969,0 Z M20.9765625,3.77929688 L5.43457031,3.77929688 C4.3359375,3.77929688 3.77929688,4.35058594 3.77929688,5.37597656 L3.77929688,29.4726562 C3.77929688,30.4980469 4.3359375,31.0693359 5.43457031,31.0693359 L20.9765625,31.0693359 C22.0751953,31.0693359 22.6318359,30.4980469 22.6318359,29.4726562 L22.6318359,5.37597656 C22.6318359,4.35058594 22.0751953,3.77929688 20.9765625,3.77929688 Z M17.7539062,28.0224609 C18.2373047,28.0224609 18.5888672,28.359375 18.5888672,28.8574219 C18.5888672,29.3701172 18.2373047,29.6923828 17.7539062,29.6923828 L8.671875,29.6923828 C8.18847656,29.6923828 7.83691406,29.3701172 7.83691406,28.8574219 C7.83691406,28.359375 8.18847656,28.0224609 8.671875,28.0224609 Z"></path></clipPath></defs><g transform="translate(0.7353515625 0.9921875)"><g clip-path="url(#i0)"><polygon points="0,0 26.4111328,0 26.4111328,34.8486328 0,34.8486328 0,0" stroke="none" fill="#000000"></polygon></g></g></svg>