<?xml version="1.0" encoding="UTF-8"?><svg version="1.1" width="22px" height="35px" viewBox="0 0 22.0 35.0" xmlns="http://www.w3.org/2000/svg" xmlns:xlink="http://www.w3.org/1999/xlink"><defs><clipPath id="i0"><path d="M17.2998047,0 C19.9658203,0 21.7382812,1.78710937 21.7382812,4.453125 L21.7382812,29.4287109 C21.7382812,32.0947266 19.9658203,33.8671875 17.2998047,33.8671875 L4.61425781,33.8671875 C1.84570312,33.8671875 0,32.0947266 0,29.4287109 L0,4.453125 C0,1.78710937 1.84570312,0 4.61425781,0 Z M7.42675781,4.01367188 L5.43457031,4.01367188 C4.39453125,4.01367188 3.77929688,4.58496094 3.77929688,5.61035156 L3.77929688,28.2714844 C3.77929688,29.296875 4.39453125,29.8681641 5.43457031,29.8681641 L16.3037109,29.8681641 C17.34375,29.8681641 17.9589844,29.2822266 17.9589844,28.2568359 L17.9589844,5.625 C17.9589844,4.59960938 17.34375,4.01367188 16.3037109,4.01367188 L14.3115234,4.01367188 C14.0771484,4.01367188 13.9453125,4.13085938 13.9453125,4.36523438 L13.9453125,4.81933594 C13.9453125,5.5078125 13.5058594,5.9765625 12.8173828,5.9765625 L8.92089844,5.9765625 C8.23242188,5.9765625 7.79296875,5.5078125 7.79296875,4.81933594 L7.79296875,4.36523438 C7.79296875,4.13085938 7.66113281,4.01367188 7.42675781,4.01367188 Z M14.1210938,26.9238281 C14.6044922,26.9238281 14.9560547,27.2607422 14.9560547,27.7587891 C14.9560547,28.2714844 14.6044922,28.59375 14.1210938,28.59375 L7.6171875,28.59375 C7.1484375,28.59375 6.78222656,28.2714844 6.78222656,27.7587891 C6.78222656,27.2607422 7.1484375,26.9238281 7.6171875,26.9238281 Z"></path></clipPath></defs><g transform="translate(0.185546875 0.4609375)"><g clip-path="url(#i0)"><polygon points="0,0 21.7382812,0 21.7382812,33.8671875 0,33.8671875 0,0" stroke="none" fill="#000000"></polygon></g></g></svg>