<?xml version="1.0" encoding="UTF-8"?><svg version="1.1" width="46px" height="27px" viewBox="0 0 46.0 27.0" xmlns="http://www.w3.org/2000/svg" xmlns:xlink="http://www.w3.org/1999/xlink"><defs><clipPath id="i0"><path d="M35.390625,0 C38.0566406,0 39.5654297,1.49414062 39.5654297,4.16015625 L39.5654297,21.2402344 L42.4804688,21.2402344 C43.6816406,21.2402344 44.6923828,22.2363281 44.6923828,23.4521484 C44.6923828,24.6679688 43.6816406,25.6640625 42.4804688,25.6640625 L2.21191406,25.6640625 C1.01074219,25.6640625 0,24.6679688 0,23.4521484 C0,22.2363281 1.01074219,21.2402344 2.21191406,21.2402344 L5.12695312,21.2402344 L5.12695312,4.16015625 C5.12695312,1.49414062 6.69433594,0 9.30175781,0 Z M34.4824219,3.77929688 L10.2099609,3.77929688 C9.34570312,3.77929688 8.90625,4.18945312 8.90625,5.08300781 L8.90625,21.2402344 L35.7861328,21.2402344 L35.7861328,5.08300781 C35.7861328,4.18945312 35.3466797,3.77929688 34.4824219,3.77929688 Z"></path></clipPath></defs><g transform="translate(0.7353515625 0.591796875)"><g clip-path="url(#i0)"><polygon points="0,0 44.6923828,0 44.6923828,25.6640625 0,25.6640625 0,0" stroke="none" fill="#000000"></polygon></g></g></svg>