<?xml version="1.0" encoding="UTF-8"?><svg version="1.1" width="36px" height="31px" viewBox="0 0 36.0 31.0" xmlns="http://www.w3.org/2000/svg" xmlns:xlink="http://www.w3.org/1999/xlink"><defs><clipPath id="i0"><path d="M20.9765625,0 C29.3261719,5.02441406 31.8603516,12.8173828 31.8603516,17.2851562 C31.8603516,18.2958984 31.8017578,19.9658203 31.2597656,21.4746094 C33.7207031,24.5800781 34.1748047,27.3925781 34.1748047,28.8720703 C34.1748047,29.3994141 34.1015625,29.8242188 34.0136719,30.1611328 C33.8964844,30.6005859 33.6767578,30.4541016 33.5449219,30.2197266 C33.1201172,29.4726562 32.0068359,27.5830078 29.2089844,27.5830078 C25.8398437,27.5830078 24.2578125,30.3076172 18.4570312,30.3076172 C9.34570312,30.3076172 2.59277344,23.7890625 0,19.5849609 C2.78320312,21.8261719 7.91015625,23.8623047 12.0849609,23.8623047 C15.5273438,23.8623047 17.5341797,22.9980469 19.5117188,21.9140625 C12.65625,16.3769531 7.48535156,10.5322266 3.36914062,4.5703125 C7.64648438,8.40820312 12.2460938,11.8945312 17.1679688,15 C13.5058594,10.9277344 10.1953125,7.06054688 7.41210938,2.78320312 C10.8837891,6.47460938 19.5703125,13.7109375 24.1113281,16.3476562 C24.5361328,15.3222656 25.0488281,13.2421875 25.0488281,11.3525391 C25.0488281,6.18164062 22.7197266,2.44628906 20.9765625,0 Z"></path></clipPath></defs><g transform="translate(0.98828125 0.1162109375)"><g clip-path="url(#i0)"><polygon points="0,0 34.1748047,0 34.1748047,30.4441733 0,30.4441733 0,0" stroke="none" fill="#000000"></polygon></g></g></svg>