<?xml version="1.0" encoding="UTF-8"?><svg version="1.1" width="24px" height="35px" viewBox="0 0 24.0 35.0" xmlns="http://www.w3.org/2000/svg" xmlns:xlink="http://www.w3.org/1999/xlink"><defs><clipPath id="i0"><path d="M14.296875,0 C15.4101562,0 16.2158203,0.52734375 16.5527344,1.5234375 L17.2998047,3.45703125 C17.6367188,4.37988281 18.1494141,4.98046875 18.9990234,5.49316406 C20.7275391,6.54785156 21.5917969,8.21777344 21.5917969,10.5322266 C22.5292969,10.5322266 23.1738281,11.2060547 23.1738281,12.2021484 L23.1738281,14.2675781 C23.1738281,15.2783203 22.5292969,15.9521484 21.5917969,15.9521484 L21.5917969,23.1445312 C21.5917969,25.4589844 20.7275391,27.1289062 18.9990234,28.1835938 C18.1494141,28.6962891 17.6367188,29.296875 17.2998047,30.2050781 L16.5527344,32.1533203 C16.2011719,33.1494141 15.4248047,33.6621094 14.296875,33.6621094 L7.29492188,33.6621094 C6.18164062,33.6621094 5.390625,33.1494141 5.02441406,32.1533203 L4.29199219,30.2050781 C3.95507812,29.296875 3.42773438,28.6962891 2.578125,28.1835938 C0.849609375,27.1289062 0,25.4443359 0,23.1445312 L0,10.5322266 C0,8.203125 0.864257812,6.51855469 2.578125,5.49316406 C3.41308594,5.00976562 3.94042969,4.39453125 4.29199219,3.45703125 L5.02441406,1.5234375 C5.390625,0.52734375 6.18164062,0 7.29492188,0 Z M15.1611328,7.98339844 L6.43066406,7.98339844 C4.42382812,7.98339844 3.26660156,9.19921875 3.26660156,11.25 L3.26660156,22.4121094 C3.26660156,24.4775391 4.42382812,25.6787109 6.43066406,25.6787109 L15.1611328,25.6787109 C17.1533203,25.6787109 18.3251953,24.4628906 18.3251953,22.4121094 L18.3251953,11.25 C18.3251953,9.19921875 17.1533203,7.98339844 15.1611328,7.98339844 Z"></path></clipPath></defs><g transform="translate(0.1123046875 0.5927734375)"><g clip-path="url(#i0)"><polygon points="0,0 23.1738281,0 23.1738281,33.6621094 0,33.6621094 0,0" stroke="none" fill="#000000"></polygon></g></g></svg>